HIERARCHY
ROOT Hips
{
	OFFSET -3.958830 18.904000 13.208200
	CHANNELS 6 Xposition Yposition Zposition Zrotation Yrotation Xrotation 
	JOINT LHipJoint
	{
		OFFSET 0.000000 0.000000 0.000000
		CHANNELS 3 Zrotation Yrotation Xrotation
		JOINT LeftUpLeg
		{
			OFFSET 1.800000 -1.400000 0.085000
			CHANNELS 3 Zrotation Yrotation Xrotation
			JOINT LeftLeg
			{
				OFFSET 2.215000 -6.000000 0.000000
				CHANNELS 3 Zrotation Yrotation Xrotation
				JOINT LeftFoot
				{
					OFFSET 2.500000 -6.900000 0.000000
					CHANNELS 3 Zrotation Yrotation Xrotation
					JOINT LeftToeBase
					{
						OFFSET 0.200000 -0.500000 1.950000
						CHANNELS 3 Zrotation Yrotation Xrotation
						End Site
						{
							OFFSET 0.000000 0.000000 0.000000
						}
					}
				}
			}
		}
	}
	JOINT RHipJoint
	{
		OFFSET 0.000000 0.000000 0.000000
		CHANNELS 3 Zrotation Yrotation Xrotation
		JOINT RightUpLeg
		{
			OFFSET -1.800000 -1.400000 0.085000
			CHANNELS 3 Zrotation Yrotation Xrotation
			JOINT RightLeg
			{
				OFFSET -2.215000 -6.000000 0.000000
				CHANNELS 3 Zrotation Yrotation Xrotation
				JOINT RightFoot
				{
					OFFSET -2.500000 -6.900000 0.000000
					CHANNELS 3 Zrotation Yrotation Xrotation
					JOINT RightToeBase
					{
						OFFSET -0.200000 -0.500000 1.950000
						CHANNELS 3 Zrotation Yrotation Xrotation
						End Site
						{
							OFFSET 0.000000 0.000000 0.000000
						}
					}
				}
			}
		}
	}
	JOINT LowerBack
	{
		OFFSET 0.000000 0.000000 0.000000
		CHANNELS 3 Zrotation Yrotation Xrotation
		JOINT Spine
		{
			OFFSET -0.087000 1.940000 -0.288900
			CHANNELS 3 Zrotation Yrotation Xrotation
			JOINT Spine1
			{
				OFFSET 0.000000 1.950000 0.060000
				CHANNELS 3 Zrotation Yrotation Xrotation
				JOINT Neck
				{
					OFFSET 0.000000 0.000000 0.000000
					CHANNELS 3 Zrotation Yrotation Xrotation
					JOINT Neck1
					{
						OFFSET 0.000000 1.600000 0.340000
						CHANNELS 3 Zrotation Yrotation Xrotation
						JOINT Head
						{
							OFFSET 0.000000 1.667000 -0.240000
							CHANNELS 3 Zrotation Yrotation Xrotation
							End Site
							{
								OFFSET 0.000000 0.000000 0.000000
							}
						}
					}
				}
				JOINT LeftShoulder
				{
					OFFSET 0.000000 0.000000 0.000000
					CHANNELS 3 Zrotation Yrotation Xrotation
					JOINT LeftArm
					{
						OFFSET 2.700000 1.550000 -0.730000
						CHANNELS 3 Zrotation Yrotation Xrotation
						JOINT LeftForeArm
						{
							OFFSET 5.450000 0.000000 0.000000
							CHANNELS 3 Zrotation Yrotation Xrotation
							JOINT LeftHand
							{
								OFFSET 3.450000 0.000000 0.000000
								CHANNELS 3 Zrotation Yrotation Xrotation
								JOINT LeftHandIndex1
								{
									OFFSET 0.750000 0.000000 0.000000
									CHANNELS 3 Zrotation Yrotation Xrotation
									End Site
									{
										OFFSET 0.000000 0.000000 0.000000
									}
								}
							}
						}
					}
				}
				JOINT RightShoulder
				{
					OFFSET 0.000000 0.000000 0.000000
					CHANNELS 3 Zrotation Yrotation Xrotation
					JOINT RightArm
					{
						OFFSET -2.700000 1.550000 -0.730000
						CHANNELS 3 Zrotation Yrotation Xrotation
						JOINT RightForeArm
						{
							OFFSET -5.450000 0.000000 0.000000
							CHANNELS 3 Zrotation Yrotation Xrotation
							JOINT RightHand
							{
								OFFSET -3.450000 0.000000 0.000000
								CHANNELS 3 Zrotation Yrotation Xrotation
								JOINT RightHandIndex1
								{
									OFFSET -0.750000 0.000000 0.000000
									CHANNELS 3 Zrotation Yrotation Xrotation
									End Site
									{
										OFFSET 0.000000 0.000000 0.000000
									}
								}
							}
						}
					}
				}
			}
		}
	}
}
MOTION
Frames: 13
Frame Time: 0.016667
1.937190 17.160920 -1.581660 -0.689819 -10.706261 7.687043 -14.970088 13.535427 2.895314 8.300140 -1.170740 -19.395801 -6.940656 7.598882 22.771125 -1.066961 5.782760 2.911691 -0.025130 -0.590910 -0.304840 18.333043 -11.151837 3.091179 0.638460 -0.293098 -3.027797 5.561472 -5.752191 11.203222 -0.511446 -4.225703 3.353261 -0.121320 1.064810 0.462300 -3.714585 -1.488663 -7.606958 11.252475 2.732961 12.129020 -5.810210 4.812064 0.743080 3.733836 -3.491602 -10.738898 -7.265341 5.503954 32.202995 -7.972460 4.447510 -11.342310 -15.255097 -4.860235 3.347833 -0.722575 8.389752 1.342267 13.550777 0.743900 -1.257899 -4.631415 2.271345 0.961010 0.575430 -0.272870 0.451220 7.774674 9.560267 6.642206 3.940642 2.483666 -5.869182 -29.976844 12.876117 -2.784133 1.495977 -1.207390 -0.710130 0.781490 0.577730 -0.283980 
1.966820 17.110250 -1.583130 -0.730222 -12.117723 8.055009 -14.959965 13.597315 2.800526 8.809390 -1.069008 -19.055841 -5.774376 7.153618 22.283726 -1.161418 5.702214 2.965164 -0.041360 -0.626570 -0.316540 18.346411 -11.175115 3.024290 -0.109303 -0.095754 -3.569613 5.710399 -5.844882 11.882953 -0.488450 -4.242287 3.346939 -0.107560 1.122430 0.459590 -3.732344 -1.546888 -7.451369 11.133695 2.734349 11.267450 -5.678425 4.662313 1.693947 3.399849 -4.104884 -10.531878 -8.237363 6.096951 30.435364 -7.456750 4.397550 -12.037400 -15.614299 -5.167985 3.282385 -0.139217 7.603019 1.471317 12.966173 0.066548 -1.424617 -4.653350 2.238688 0.982260 0.601430 -0.302550 0.453510 8.882521 9.900146 6.635916 1.914763 1.516680 -5.834242 -29.629199 12.667773 -2.638510 1.459860 -1.182753 -0.763190 0.837770 0.612410 -0.295210 
1.998630 17.067630 -1.593130 -1.100970 -13.826947 8.280400 -14.929329 13.686202 2.709135 9.520000 -0.893231 -18.409419 -4.572684 6.702399 21.521296 -1.360269 5.710374 2.995672 -0.128880 -0.777320 -0.327410 18.367964 -11.221025 2.971244 -0.555158 0.232599 -4.395105 5.654672 -5.988446 13.278789 -0.439233 -4.231296 3.345169 -0.115720 1.211690 0.429270 -3.783019 -1.584013 -7.333747 11.606573 2.600129 11.049317 -6.011085 4.631638 2.155529 3.186047 -4.542871 -10.270159 -8.903128 6.654546 29.223723 -7.399480 4.381800 -13.829330 -16.226586 -5.446546 3.144611 0.881852 7.045225 1.722354 12.728544 -0.074238 -1.623379 -4.732234 2.068904 1.083950 0.631810 -0.350520 0.408200 9.877658 10.138312 6.486632 0.814161 1.395063 -6.070061 -29.604240 12.906668 -2.587016 1.375885 -1.056949 -0.916310 0.971470 0.722300 -0.358430 
2.034870 17.021880 -1.597090 -2.060129 -15.591406 8.625575 -14.881268 13.721140 2.585458 10.688754 -0.606268 -17.331361 -3.600399 6.275812 20.205124 -1.482254 5.659009 3.034702 -0.151440 -0.825320 -0.299390 18.419743 -11.279076 2.922654 -0.476127 0.690494 -5.525477 5.529049 -6.151316 15.484371 -0.422373 -4.285251 3.299917 -0.097070 1.258470 0.441200 -3.911987 -1.470819 -7.174822 12.933644 2.259614 10.391949 -6.448745 4.298678 3.141731 3.213258 -4.629315 -9.802532 -8.749902 7.402283 27.764602 -8.411620 5.260080 -14.929950 -16.653480 -5.421832 3.063681 1.324018 6.825669 1.929057 12.577108 0.299880 -1.711960 -4.805167 2.002336 1.117420 0.672380 -0.367170 0.383410 10.137628 9.786777 5.963061 -0.434079 2.577399 -5.953239 -28.437766 13.218028 -2.536945 1.325568 -1.002843 -0.983570 1.029280 0.767190 -0.394740 
2.066050 16.973360 -1.599000 -2.790962 -16.680287 8.944179 -14.864959 13.792058 2.514734 11.656991 -0.441463 -16.478566 -2.707321 5.908682 19.111356 -1.530413 5.588524 3.086545 -0.167670 -0.844330 -0.296410 18.427271 -11.288591 2.902169 -0.440568 1.290986 -6.918076 5.989366 -6.466617 18.025133 -0.415650 -4.389676 3.257411 -0.088620 1.296750 0.441810 -3.932913 -1.498867 -7.120401 13.648042 1.891880 10.347541 -6.537574 3.944488 3.028554 3.281873 -4.542101 -9.644344 -8.397658 7.796825 26.672042 -8.847280 5.815930 -15.141680 -16.787604 -5.452491 2.925980 1.728568 6.061770 2.035126 12.012587 0.712474 -1.740379 -4.849886 1.956075 1.120280 0.703300 -0.379940 0.384040 10.125323 9.535517 5.845198 -0.399377 2.282664 -5.927861 -28.560420 14.153612 -2.694030 1.290031 -0.989872 -1.017280 1.064140 0.778990 -0.401130 
2.104060 16.929160 -1.599320 -3.738252 -17.196685 9.143601 -14.846249 13.779550 2.444431 13.019606 -0.296683 -15.600184 -2.452438 5.779928 18.142142 -1.568195 5.627136 3.085833 -0.147390 -0.809510 -0.281080 18.459751 -11.247540 2.884255 -0.331674 2.116530 -8.514107 6.938184 -7.060991 21.344890 -0.451684 -4.652571 3.156669 -0.050680 1.332880 0.463730 -4.022730 -1.476777 -7.043563 15.032529 1.083845 10.052896 -6.598822 3.101071 3.643597 3.259340 -4.561585 -9.176478 -8.202592 8.335345 25.296794 -9.611650 6.382610 -15.788690 -17.284635 -5.524839 2.836487 2.079392 5.451275 2.213833 11.375834 1.256381 -1.785173 -4.901213 1.934968 1.108080 0.748890 -0.382770 0.394410 10.606075 9.186968 5.297804 -1.867108 3.073763 -5.749764 -27.635378 14.823241 -2.730868 1.244332 -0.981570 -1.026800 1.095730 0.779550 -0.400920 
2.140690 16.888160 -1.598480 -4.652650 -17.681180 9.170410 -14.837522 13.757184 2.398412 14.378689 -0.165348 -14.614586 -2.529037 5.800868 17.390394 -1.530597 5.659973 3.056841 -0.101230 -0.731550 -0.259430 18.476698 -11.164003 2.905753 -0.727870 3.192840 -10.424546 8.675851 -8.042638 25.125295 -0.549748 -5.069165 2.972371 -0.020900 1.300810 0.498710 -4.078157 -1.492346 -7.044181 16.152406 0.358630 10.152787 -6.645989 2.387382 4.014990 3.339815 -4.389790 -8.924165 -7.816777 8.913980 24.863102 -10.190670 7.207630 -16.489950 -17.464680 -5.585644 2.813560 1.992527 4.857787 2.220356 11.035072 1.580267 -1.774446 -4.895333 1.989705 1.085770 0.749090 -0.344770 0.406220 10.592188 8.799068 4.925156 -2.006765 3.634249 -5.735704 -27.661028 15.136326 -2.852796 1.246323 -1.020383 -0.976700 1.060170 0.748790 -0.388590 
2.184320 16.841840 -1.596220 -5.548207 -18.100164 9.289581 -14.835353 13.713946 2.361799 15.496625 -0.145964 -13.810210 -2.830166 5.972874 17.181756 -1.514422 5.802985 3.006575 -0.088600 -0.724100 -0.234850 18.490262 -11.020245 2.975210 -1.736557 4.580869 -12.994287 10.914466 -9.512821 29.546015 -0.666134 -5.700324 2.726748 -0.013330 1.303140 0.513850 -4.128746 -1.558116 -7.087445 17.440331 -0.494618 10.418953 -6.847780 1.690115 4.024440 3.414126 -4.440906 -8.840007 -7.860719 9.459067 24.466204 -10.593740 7.790000 -16.392910 -17.134000 -5.560418 2.755625 1.627920 3.627091 2.230571 10.497599 3.022607 -1.770030 -4.936354 1.979117 1.080820 0.763710 -0.343880 0.403270 10.098339 8.504764 4.754094 -1.406376 4.051486 -5.792207 -28.035211 15.251041 -2.994170 1.236977 -1.039564 -0.973340 1.053670 0.743590 -0.396530 
2.234000 16.800120 -1.601900 -6.126747 -18.831795 9.114833 -14.856855 13.723339 2.333689 16.017101 -0.142019 -12.834730 -3.100305 6.124741 17.182392 -1.449821 5.859883 2.957076 -0.036830 -0.655690 -0.221720 18.468478 -10.805106 3.122941 -3.805752 6.054747 -15.988938 13.788369 -11.521076 33.939525 -0.864014 -6.515811 2.409388 -0.005870 1.241650 0.543970 -4.084639 -1.804835 -7.224903 18.028653 -1.339296 11.632527 -6.853943 1.142771 3.490321 3.587492 -4.558187 -9.035468 -8.125098 10.247093 24.700820 -10.276040 8.445220 -17.318180 -16.337259 -5.397992 2.781319 0.155699 2.554604 2.077773 10.774805 4.248252 -1.673932 -4.911597 2.040487 1.087760 0.725470 -0.295330 0.414380 8.995875 8.369903 4.752397 -0.049935 4.683097 -5.911958 -28.603606 14.774308 -3.053399 1.260590 -1.080061 -0.910720 0.993690 0.711900 -0.387630 
2.272670 16.761120 -1.604370 -6.294961 -20.057597 8.762806 -14.920303 13.764311 2.314636 16.238900 -0.118000 -11.754432 -3.629892 6.436439 17.516302 -1.359428 5.968648 2.896669 0.013360 -0.581870 -0.193500 18.407060 -10.507077 3.336617 -6.832110 7.426876 -19.362837 16.693572 -13.863611 38.224349 -1.090377 -7.466052 2.061342 0.003370 1.183120 0.563150 -3.912720 -2.224795 -7.429565 17.341228 -1.908649 13.457546 -6.148917 0.729226 2.140273 3.713390 -4.642580 -9.066651 -8.326708 11.070656 24.891884 -10.212050 9.257030 -18.049630 -15.767772 -4.935625 2.627972 -1.014519 1.672302 1.986115 10.803252 5.250099 -1.567844 -4.889166 2.091739 1.075840 0.694380 -0.250090 0.421860 8.280920 8.176945 4.526948 1.329112 5.920839 -6.044751 -29.657008 14.030125 -3.170589 1.299827 -1.121226 -0.847300 0.943990 0.671100 -0.376720 
2.303520 16.707270 -1.605550 -6.045549 -21.742947 8.490366 -15.005479 13.749886 2.262296 15.897608 -0.121374 -10.471624 -4.194962 6.671642 17.523774 -1.309217 6.088405 2.861412 0.026670 -0.560670 -0.181260 18.349075 -10.154464 3.616305 -10.692108 8.484776 -23.260109 19.644218 -16.400026 41.835176 -1.311815 -8.461121 1.703609 0.006750 1.179080 0.590890 -3.721862 -2.632875 -7.613077 15.751590 -2.169956 14.698278 -5.139194 0.318052 1.340122 3.698228 -4.551500 -9.053622 -8.196368 12.248198 24.824563 -10.287100 10.422270 -18.143760 -15.232475 -4.808823 2.723333 -1.535428 1.310588 2.029277 10.373038 6.306876 -1.542775 -4.910347 2.113799 1.069200 0.701910 -0.230750 0.425100 7.967467 8.132370 4.145979 2.088403 7.739846 -6.110834 -30.276151 12.327751 -3.102935 1.333781 -1.150197 -0.825630 0.923370 0.662300 -0.372270 
2.326260 16.654680 -1.604700 -5.522459 -23.240866 8.229048 -15.102131 13.747643 2.187413 15.080965 -0.168263 -9.566983 -4.308472 6.798502 17.904430 -1.318768 6.176164 2.852760 0.019750 -0.558100 -0.170880 18.292928 -9.811370 3.908107 -14.489613 8.882533 -27.056338 21.952394 -18.520469 44.233952 -1.465905 -9.229071 1.454058 0.025460 1.198230 0.574530 -3.511443 -3.054938 -7.765478 13.779279 -2.274984 15.744875 -3.957926 -0.071524 0.472604 3.677893 -4.516468 -8.848453 -8.139290 13.366912 24.376014 -10.818090 11.571040 -18.358650 -14.605603 -4.172039 2.622632 -2.828964 1.214941 2.040476 11.291357 5.002225 -1.511744 -4.914289 2.084010 1.077490 0.723380 -0.235130 0.426490 7.594749 7.636319 3.619802 3.116108 9.503364 -6.069427 -30.866290 10.048554 -2.885342 1.356309 -1.156207 -0.861300 0.958560 0.661530 -0.385920 
2.341470 16.600220 -1.607450 -5.282163 -24.583364 7.772102 -15.190721 13.773920 2.133763 14.727904 -0.208434 -8.834746 -4.414215 7.014230 18.564257 -1.322374 6.319972 2.809583 0.005940 -0.588910 -0.133360 18.244271 -9.469020 4.184753 -17.765771 8.885867 -30.261664 23.805079 -20.232514 45.772953 -1.583355 -9.762562 1.269353 0.018570 1.189820 0.549730 -3.320052 -3.543229 -7.933901 12.337358 -2.613203 17.336234 -3.100081 -0.493711 -0.616992 3.659901 -4.778132 -8.817552 -8.701498 14.481604 24.371398 -11.004820 12.469780 -19.241130 -13.838790 -3.605711 2.599834 -4.449406 1.151460 1.941028 13.026896 3.575223 -1.478089 -4.892009 2.044177 1.118840 0.705720 -0.227740 0.400060 7.064394 7.367733 3.272147 4.528561 10.757195 -6.130856 -31.584155 9.074910 -2.793003 1.377859 -1.126220 -0.900670 0.990940 0.671920 -0.415990 
